# xmcd
#
# Track frame offsets: 
#        150
#        12536
#        25831
#        36945
#        49148
#        61883
#        72984
#        84371
#        95875
#        110533
#        126005
#        140473
#        150398
#        160980
#        172355
#        186307
#        199023
#        211724
#        221935
#        235904
#
# Disc length: 3292 seconds
#
# Revision: 0
# Processed by: cddbd v1.5.2PL0 Copyright (c) Steve Scherf et al.
# Submitted via: ExactAudioCopy v1.1
#
DISCID=260cda14
DTITLE=Diddley, Bo - Diddley, Bo - The Absolute Essential Collection  
DTITLE=cd1
DYEAR=2015
DGENRE=Blues
TTITLE0=Bo Diddley
TTITLE1=I'm a man
TTITLE2=Diddley daddy
TTITLE3=She's Fine, She's Mine
TTITLE4=Pretty Thing
TTITLE5=Bring it to Jerome
TTITLE6=Diddy Wah Diddy
TTITLE7=I'm looking for a woman
TTITLE8=I'm Bad
TTITLE9=Cops And Robbers
TTITLE10=Down Home Special
TTITLE11=Hey Bo Diddley
TTITLE12=Mona (I Need You Baby)
TTITLE13=Say Boss Man
TTITLE14=Before you accuse me
TTITLE15=Hush your mouth
TTITLE16=Dearest darling
TTITLE17=Willie and Lillie
TTITLE18=Bo meets the monster
TTITLE19=I'm Sorry
EXTD=
EXTT0=
EXTT1=
EXTT2=
EXTT3=
EXTT4=
EXTT5=
EXTT6=
EXTT7=
EXTT8=
EXTT9=
EXTT10=
EXTT11=
EXTT12=
EXTT13=
EXTT14=
EXTT15=
EXTT16=
EXTT17=
EXTT18=
EXTT19=
PLAYORDER=
